<svg width="160" height="60" viewBox="0 0 160 60" fill="none" xmlns="http://www.w3.org/2000/svg">
<path d="M10.506 38C10.459 38 10.4041 37.9683 10.3413 37.905C10.2786 37.8575 10.2393 37.8259 10.2236 37.81C10.2236 37.7942 10.2236 37.7784 10.2236 37.7626C10.255 37.5884 10.9923 36.1954 12.4356 33.5834C13.4867 31.7155 14.8358 29.246 16.4831 26.175C16.9694 25.2727 17.2125 24.8057 17.2125 24.7741C17.2125 24.7266 16.836 24.5445 16.083 24.228C15.2673 23.8639 14.475 23.6818 13.7063 23.6818C12.4827 23.6818 11.0865 24.2359 9.5177 25.344C9.36082 25.4548 9.251 25.5102 9.18825 25.5102C9.06275 25.5102 9 25.4469 9 25.3202C9 25.1303 9.28238 24.8532 9.84714 24.4891C11.2433 23.5552 12.5219 23.0882 13.6828 23.0882C14.5142 23.0882 15.4869 23.3098 16.6007 23.7531L17.589 24.1567C17.8087 23.761 18.1616 23.0882 18.648 22.1384C20.5305 18.6558 22.1542 15.7589 23.519 13.4478C25.1819 10.6775 26.9154 7.89937 28.7195 5.1133C29.4882 3.91022 29.9275 3.26119 30.0373 3.16621C30.1628 3.0554 30.2804 3 30.3902 3C30.6256 3 30.7981 3.13455 30.9079 3.40366L30.9315 3.52239C30.9315 4.32972 30.3824 6.72004 29.2843 10.6934C27.9979 15.3315 26.8762 19.6768 25.9192 23.7293C25.6369 24.8691 25.4957 25.5102 25.4957 25.6526V25.6764C25.6055 25.6764 26.3114 25.4073 27.6135 24.8691C28.9156 24.3308 29.6215 24.0617 29.7314 24.0617C29.8255 24.0617 29.8726 24.133 29.8726 24.2754C29.8726 24.5287 28.343 25.2648 25.2839 26.4837C25.2525 26.5312 25.0015 27.576 24.5309 29.618C24.0759 31.6601 23.8485 32.792 23.8485 33.0136C23.8171 33.536 23.6445 34.462 23.3308 35.7917C23.1896 36.3616 23.0641 36.7653 22.9543 37.0027C22.766 37.3826 22.5228 37.5726 22.2248 37.5726C21.8796 37.5726 21.6443 37.3589 21.5188 36.9315C21.5031 36.8523 21.4953 36.7653 21.4953 36.6703C21.4953 36.3853 21.8169 34.8973 22.4601 32.2062C23.0719 29.626 23.4327 28.1221 23.5425 27.6947C23.6524 27.2673 23.7073 27.0219 23.7073 26.9586C23.723 26.8953 23.7386 26.8241 23.7543 26.7449L22.6719 26.6499C21.9659 26.6024 21.3306 26.4916 20.7658 26.3175C20.2167 26.1434 19.4637 25.8189 18.5068 25.344L17.7773 25.0115C17.7459 25.0115 17.7302 25.0432 17.7302 25.1065C17.7302 25.154 16.8909 26.7133 15.2123 29.7843C14.224 31.573 13.071 33.623 11.7532 35.9342C11.3139 36.6465 11.0237 37.1452 10.8825 37.4301C10.7257 37.81 10.6002 38 10.506 38ZM23.9191 26.1513L24.6956 23.0407C25.6682 19.0832 26.8291 14.8804 28.1783 10.4322C29.2607 6.87042 29.802 5.02623 29.802 4.89959C29.6921 4.94708 27.7626 7.92311 24.0132 13.8277C22.8993 15.7114 21.7385 17.7456 20.5305 19.9301C18.946 22.7953 18.146 24.2913 18.1303 24.4179C18.1303 24.4812 18.6087 24.7266 19.5657 25.154C20.5383 25.5814 21.26 25.8426 21.7306 25.9376C22.2169 26.0326 22.9464 26.1038 23.9191 26.1513Z" fill="#161614"/>
<path d="M32.3537 35.6255C31.8831 35.6255 31.436 35.5068 31.0124 35.2693C29.9457 34.6678 29.4123 33.3777 29.4123 31.3989C29.4123 29.2935 29.93 26.3017 30.9654 22.4233C31.8909 19.0832 32.9028 15.9647 34.0009 13.0678C35.3972 9.3953 36.4404 7.55902 37.1306 7.55902C37.5072 7.55902 37.6954 7.80439 37.6954 8.29512C37.6954 8.67503 37.4993 9.49028 37.1071 10.7408C36.307 13.5586 35.2952 15.9251 34.0715 17.8406C33.7578 18.2996 33.5303 18.7429 33.3891 19.1703C33.295 19.4394 33.1773 19.8193 33.0361 20.31C31.5458 25.4073 30.8006 29.0323 30.8006 31.1852C30.8006 31.4543 30.832 31.8738 30.8948 32.4437C31.0516 33.7417 31.6164 34.3908 32.589 34.3908C33.4519 34.3908 34.5108 33.8288 35.7658 32.7049C36.7698 31.8342 38.7386 29.8397 41.6723 26.7212C43.3038 24.964 44.2058 24.0855 44.3784 24.0855C44.4411 24.0855 44.496 24.1092 44.5431 24.1567C44.5902 24.2042 44.6137 24.2438 44.6137 24.2754C44.6137 24.4021 44.1666 24.9799 43.2724 26.0088C41.3899 28.1775 39.6172 30.1088 37.9543 31.8026C36.5737 33.2273 35.4913 34.2008 34.7069 34.7232C33.8127 35.3247 33.0283 35.6255 32.3537 35.6255ZM34.5657 15.5848C34.6128 15.5848 34.7618 15.2365 35.0128 14.54C35.3736 13.5427 35.5697 12.9649 35.6011 12.8066C35.6482 12.6483 35.6717 12.5613 35.6717 12.5455C35.6403 12.5455 35.4442 13.0599 35.0834 14.0889C34.7383 15.0387 34.5657 15.5373 34.5657 15.5848Z" fill="#161614"/>
<path d="M45.5418 29.998C45.2751 29.998 45.0163 29.9584 44.7652 29.8792C43.9809 29.531 43.5887 28.9136 43.5887 28.0271C43.5887 27.4414 43.8005 26.737 44.224 25.9138C44.8045 24.7741 45.5967 23.7768 46.6007 22.922C47.6047 22.0513 48.4676 21.616 49.1892 21.616C49.55 21.616 49.8167 21.7506 49.9893 22.0197C50.0206 22.0672 50.0363 22.1226 50.0363 22.1859C50.0363 22.9457 49.7304 23.6264 49.1186 24.228C48.3185 25.0353 47.3145 25.6289 46.1066 26.0088C45.73 26.1196 45.5183 26.2463 45.4712 26.3887C45.1574 27.0219 45.0006 27.576 45.0006 28.0509C45.0006 28.2567 45.0633 28.415 45.1888 28.5258C45.2986 28.6208 45.5653 28.6682 45.9889 28.6682C46.8674 28.6682 47.8793 28.2013 49.0245 27.2673C49.5108 26.8716 50.303 26.1671 51.4012 25.154C52.1542 24.4258 52.617 24.0617 52.7895 24.0617C52.9621 24.0617 53.0484 24.1488 53.0484 24.3229C53.0484 24.4337 52.413 25.1144 51.1423 26.365C49.9187 27.5839 49.048 28.3912 48.5303 28.787C47.4165 29.5943 46.4203 29.998 45.5418 29.998ZM46.3654 25.0115C47.3851 24.5208 48.1303 24.0538 48.6009 23.6106C49.0715 23.1515 49.3069 22.8112 49.3069 22.5896C49.3069 22.5737 49.299 22.5658 49.2833 22.5658C49.048 22.5658 48.5538 22.8745 47.8008 23.4919C47.2518 23.9668 46.7733 24.4733 46.3654 25.0115Z" fill="#161614"/>
<path d="M53.7176 31.7076C53.5607 31.7076 53.4823 31.6126 53.4823 31.4227C53.4823 31.1219 53.6627 30.5916 54.0235 29.8318C54.2432 29.341 54.4628 28.9136 54.6824 28.5495C54.8707 28.2488 54.9648 28.0825 54.9648 28.0509L54.8942 27.8372C54.4549 26.919 54.1726 26.1592 54.0471 25.5577C53.8902 24.9086 53.7568 23.9509 53.647 22.6845C53.5058 21.1649 53.3097 20.1122 53.0587 19.5265C52.996 19.3523 52.9646 19.2415 52.9646 19.194C52.9646 19.1465 53.0038 19.0911 53.0823 19.0278C53.1607 18.9487 53.247 18.9091 53.3411 18.9091C53.498 18.9091 53.6706 19.012 53.8588 19.2178C54.2667 19.661 54.5726 20.4763 54.7765 21.6635C55.2785 24.9878 55.6551 26.6499 55.9061 26.6499C56.8316 25.526 57.9533 24.3229 59.2711 23.0407C60.8242 21.521 61.8752 20.7612 62.4243 20.7612C62.5655 20.7612 62.6361 20.8245 62.6361 20.9512C62.6361 21.0778 62.4871 21.2678 62.189 21.521C61.8909 21.7743 61.6007 22.0276 61.3183 22.2809C59.3731 23.8955 57.8357 25.4389 56.7061 26.9111C56.4708 27.2119 56.3532 27.4019 56.3532 27.481C56.3532 27.5602 56.4394 27.7026 56.612 27.9084C57.0356 28.4308 57.4278 28.7474 57.7886 28.8582C58.071 28.9532 58.6044 29.0007 59.3887 29.0007C60.9261 29.0007 62.6126 28.5337 64.448 27.5997C65.4677 27.0932 66.6757 26.365 68.0719 25.4152C69.4524 24.5287 70.1898 24.0855 70.2839 24.0855C70.4094 24.0855 70.4721 24.1409 70.4721 24.2517C70.4721 24.6158 69.021 25.7635 66.1188 27.6947C63.4048 29.531 61.0909 30.4491 59.177 30.4491C57.5454 30.4491 56.3767 29.9742 55.6707 29.0244L55.4119 28.6682C54.5648 29.998 54.0863 30.9082 53.9765 31.3989C53.9294 31.6047 53.8431 31.7076 53.7176 31.7076Z" fill="#161614"/>
<path d="M70.4354 29.9742C70.106 29.9742 69.8315 29.8318 69.6118 29.5468C69.3922 29.246 69.2824 28.8899 69.2824 28.4783C69.2824 27.386 70.0589 25.716 71.612 23.4681C72.6474 21.9959 73.6514 21.2598 74.6241 21.2598C75.4398 21.2598 75.934 21.7585 76.1066 22.7558L76.2007 23.3731C76.4203 23.1515 76.5615 23.0407 76.6242 23.0407C76.7027 23.0249 76.8439 22.8666 77.0478 22.5658C77.4557 22.0751 77.8165 21.8297 78.1303 21.8297C78.3342 21.8297 78.4362 21.9484 78.4362 22.1859C78.4362 22.3284 78.3577 22.5183 78.2009 22.7558C77.3223 24.133 76.8831 25.4548 76.8831 26.7212C76.8831 27.5285 77.0792 27.9322 77.4714 27.9322C77.6283 27.9322 77.84 27.8688 78.1067 27.7422C78.9539 27.3306 79.8481 26.6024 80.7893 25.5577C81.7306 24.4971 82.3189 23.9668 82.5542 23.9668C82.6483 23.9668 82.6954 24.0063 82.6954 24.0855C82.6954 24.1963 82.4836 24.5366 82.0601 25.1065C79.8951 27.8609 78.2715 29.2381 77.189 29.2381C77.0792 29.2381 76.9694 29.2223 76.8596 29.1906C76.2791 29.064 75.9261 28.7949 75.8006 28.3833C75.6908 27.9559 75.6202 27.671 75.5889 27.5285C75.5732 27.3702 75.5653 27.1961 75.5653 27.0061C75.5653 26.4204 75.6673 25.6685 75.8712 24.7503C73.0161 28.2329 71.2041 29.9742 70.4354 29.9742ZM70.7884 28.597C70.961 28.5654 71.3296 28.2962 71.8944 27.7897C74.4986 25.3677 75.8006 24.0222 75.8006 23.7531V23.7293C75.7379 23.6818 75.6908 23.5393 75.6595 23.3019C75.581 22.827 75.4555 22.5579 75.2829 22.4946C75.1104 22.4154 74.9692 22.3758 74.8594 22.3758C74.2946 22.3758 73.573 23.009 72.6945 24.2754C72.1925 25.0353 71.7454 25.803 71.3532 26.5787C70.9139 27.4652 70.6943 28.0746 70.6943 28.4071C70.6943 28.5337 70.7257 28.597 70.7884 28.597Z" fill="#161614"/>
<path d="M82.4234 31.114C81.7488 31.114 81.4115 30.9161 81.4115 30.5204C81.4115 30.2671 81.5135 29.7843 81.7174 29.0719C82.9097 24.7503 83.9921 22.5896 84.9648 22.5896C85.1217 22.5896 85.2001 22.6766 85.2001 22.8507C85.2001 22.9141 85.1687 23.0407 85.106 23.2307C84.5098 24.8611 84.0471 26.2146 83.7176 27.291C83.7333 27.291 83.9137 27.0299 84.2588 26.5075C85.7649 24.0063 87.2395 22.0355 88.6828 20.595C89.4672 19.756 90.2437 19.3365 91.0124 19.3365C91.7027 19.3682 92.0635 19.851 92.0949 20.7849C92.0949 21.2915 91.8282 22.5341 91.2948 24.5129C90.6359 27.0773 90.3065 28.6128 90.3065 29.1194C90.3065 29.531 90.4947 29.7368 90.8712 29.7368C90.9654 29.7368 91.0752 29.7209 91.2007 29.6893C91.7968 29.5785 92.8871 28.6128 94.4716 26.7924C96.056 24.9561 96.9032 24.038 97.013 24.038C97.0757 24.038 97.1071 24.0776 97.1071 24.1567C97.1071 24.2992 96.3227 25.344 94.754 27.291C93.1852 29.2381 91.9145 30.3937 90.9418 30.7578C90.6281 30.8844 90.3378 30.9478 90.0712 30.9478C89.5535 30.9478 89.1848 30.6787 88.9652 30.1404C88.8867 29.9505 88.8475 29.6814 88.8475 29.3331C88.8475 28.2092 89.2711 26.2304 90.1182 23.3969C90.4633 22.0672 90.6359 21.1332 90.6359 20.595C90.6359 20.3417 90.5026 20.2151 90.2359 20.2151C90.0006 20.2151 89.726 20.3813 89.4123 20.7137C87.8749 22.2967 86.4081 24.41 85.0119 27.0536C83.6627 29.618 82.9019 30.9398 82.7293 31.019C82.6195 31.0823 82.5175 31.114 82.4234 31.114Z" fill="#161614"/>
<path d="M103.047 35.6493C102.875 35.6493 102.569 35.111 102.13 34.0346C101.926 33.5439 101.824 32.8553 101.824 31.9688C101.824 29.9426 102.279 27.1723 103.189 23.6581C103.236 23.4681 103.259 23.3494 103.259 23.3019L102.93 23.9668C102.616 24.6949 102.208 25.5498 101.706 26.5312C101.204 27.4968 100.828 28.1854 100.577 28.597C99.7138 29.9109 98.898 30.5678 98.1293 30.5678C97.2822 30.5678 96.8586 29.9267 96.8586 28.6445C96.8586 27.5522 97.0782 26.3175 97.5175 24.9403C97.8626 23.8955 98.3411 22.8745 98.9529 21.8772C99.5648 20.8799 100.192 20.0884 100.835 19.5027C101.494 18.917 102.09 18.6242 102.624 18.6242C103.22 18.6242 103.581 18.9328 103.706 19.5502C103.738 19.851 103.777 20.0014 103.824 20.0014C103.871 20.0014 104.028 19.6848 104.295 19.0516C105.879 12.9095 106.75 9.70398 106.907 9.43487C106.969 9.37155 107.299 9.33989 107.895 9.33989C108.13 9.33989 108.248 9.47445 108.248 9.74356C108.232 10.0285 108.028 10.8121 107.636 12.0943C104.546 22.732 103 29.8001 103 33.2985C103 33.6468 103.024 33.9238 103.071 34.1296C103.165 34.5886 103.212 34.9448 103.212 35.1981C103.212 35.4989 103.157 35.6493 103.047 35.6493ZM98.3411 29.0482C98.4039 29.0482 98.6627 28.8186 99.1177 28.3596C100.122 27.3939 101.188 25.7635 102.318 23.4681C102.757 22.5658 103.008 21.9643 103.071 21.6635C103.118 21.4735 103.165 21.2361 103.212 20.9512C103.212 20.6504 103.165 20.3734 103.071 20.1201C102.993 19.8668 102.906 19.7402 102.812 19.7402C102.341 19.7402 101.738 20.2467 101 21.2598C99.4942 23.3019 98.6078 25.4785 98.3411 27.7897C98.2941 28.1379 98.2705 28.4387 98.2705 28.692C98.2705 28.9294 98.2941 29.0482 98.3411 29.0482Z" fill="#161614"/>
<path d="M107.388 30.4254C107.152 30.4254 106.995 30.3225 106.917 30.1167C106.854 30.0375 106.823 29.9584 106.823 29.8792C106.823 29.5152 107.066 28.2883 107.552 26.1988C108.039 23.9668 108.392 22.5737 108.611 22.0197C108.737 21.7031 108.886 21.5369 109.058 21.521C109.325 21.521 109.458 21.7347 109.458 22.1621C109.458 22.5896 109.317 23.4365 109.035 24.7029V24.7503C109.051 24.7503 109.105 24.6791 109.2 24.5366C110.094 22.9853 110.706 21.9643 111.035 21.4735C112.337 19.5739 113.443 18.6004 114.353 18.5529L114.659 18.5767C114.941 18.6083 115.082 18.727 115.082 18.9328C115.082 19.0278 114.863 19.7402 114.424 21.0699C114 22.3838 113.788 23.2861 113.788 23.7768C113.788 24.1251 113.867 24.3229 114.024 24.3704C114.18 24.4179 114.306 24.4417 114.4 24.4417C114.667 24.4258 115.067 24.3467 115.6 24.2042C116.134 24.0459 116.479 23.9668 116.636 23.9668C116.714 23.9668 116.761 24.0222 116.777 24.133C116.777 24.2121 116.314 24.3783 115.388 24.6316C114.62 24.8532 114.063 24.964 113.718 24.964C112.996 24.964 112.635 24.5683 112.635 23.7768C112.635 23.3177 112.855 22.3996 113.294 21.0224C113.623 19.946 113.788 19.3682 113.788 19.289C111.937 20.6979 110.031 24.2596 108.07 29.9742C107.96 30.275 107.733 30.4254 107.388 30.4254Z" fill="#161614"/>
<path d="M116.74 29.9742C116.411 29.9742 116.136 29.8318 115.916 29.5468C115.697 29.246 115.587 28.8899 115.587 28.4783C115.587 27.386 116.364 25.716 117.917 23.4681C118.952 21.9959 119.956 21.2598 120.929 21.2598C121.744 21.2598 122.239 21.7585 122.411 22.7558L122.505 23.3731C122.725 23.1515 122.866 23.0407 122.929 23.0407C123.007 23.0249 123.148 22.8666 123.352 22.5658C123.76 22.0751 124.121 21.8297 124.435 21.8297C124.639 21.8297 124.741 21.9484 124.741 22.1859C124.741 22.3284 124.662 22.5183 124.505 22.7558C123.627 24.133 123.188 25.4548 123.188 26.7212C123.188 27.5285 123.384 27.9322 123.776 27.9322C123.933 27.9322 124.145 27.8688 124.411 27.7422C125.258 27.3306 126.153 26.6024 127.094 25.5577C128.035 24.4971 128.623 23.9668 128.859 23.9668C128.953 23.9668 129 24.0063 129 24.0855C129 24.1963 128.788 24.5366 128.365 25.1065C126.2 27.8609 124.576 29.2381 123.494 29.2381C123.384 29.2381 123.274 29.2223 123.164 29.1906C122.584 29.064 122.231 28.7949 122.105 28.3833C121.995 27.9559 121.925 27.671 121.893 27.5285C121.878 27.3702 121.87 27.1961 121.87 27.0061C121.87 26.4204 121.972 25.6685 122.176 24.7503C119.321 28.2329 117.509 29.9742 116.74 29.9742ZM117.093 28.597C117.266 28.5654 117.634 28.2962 118.199 27.7897C120.803 25.3677 122.105 24.0222 122.105 23.7531V23.7293C122.042 23.6818 121.995 23.5393 121.964 23.3019C121.886 22.827 121.76 22.5579 121.588 22.4946C121.415 22.4154 121.274 22.3758 121.164 22.3758C120.599 22.3758 119.878 23.009 118.999 24.2754C118.497 25.0353 118.05 25.803 117.658 26.5787C117.218 27.4652 116.999 28.0746 116.999 28.4071C116.999 28.5337 117.03 28.597 117.093 28.597Z" fill="#161614"/>
<path d="M62.051 56C62.0011 56 61.9512 55.9803 61.9013 55.9409C61.7516 55.862 61.6767 55.7585 61.6767 55.6304C61.6667 55.6205 61.6617 55.591 61.6617 55.5417C61.6817 55.2558 62.3154 52.5797 63.563 47.5134C63.7227 46.8235 63.8225 46.4243 63.8624 46.3159C63.064 46.6904 62.2805 46.8777 61.512 46.8777C60.504 46.8777 60 46.5179 60 45.7984C60 45.2464 60.3393 44.8571 61.018 44.6304C61.1278 44.591 61.2925 44.5712 61.512 44.5712C62.0609 44.5712 62.4951 44.6402 62.8145 44.7782C63.1438 44.9064 63.4881 45.1035 63.8474 45.3696C63.9073 45.3992 63.9572 45.414 63.9971 45.414C64.047 45.414 64.1967 44.9261 64.4463 43.9503C65.7138 39.0121 66.3575 36.4346 66.3775 36.2177L65.5541 38.6573C64.8754 40.6384 64.5161 41.8754 64.4762 42.3683C64.4562 42.733 64.4063 42.9153 64.3265 42.9153C64.2167 42.9153 64.1618 42.8118 64.1618 42.6048C64.1618 42.1416 64.5361 40.7222 65.2846 38.3468C65.8335 36.543 66.1928 35.3947 66.3625 34.9019C66.4723 34.5963 66.5621 34.4041 66.632 34.3253C66.7118 34.2366 66.7966 34.1922 66.8865 34.1922C67.0561 34.1922 67.1509 34.2513 67.1709 34.3696C67.2008 34.4879 67.2158 34.6062 67.2158 34.7245C67.2158 35.1582 66.7218 37.4498 65.7337 41.5995C65.2247 43.7482 64.9702 44.8423 64.9702 44.8817C64.9702 44.9014 64.9752 44.9113 64.9852 44.9113C65.095 44.8916 65.5092 44.6107 66.2277 44.0685C69.1021 41.9001 72.0114 38.8987 74.9556 35.0645C75.4845 34.3548 75.8189 34 75.9586 34C76.0784 34 76.1383 34.0542 76.1383 34.1626C76.1383 34.2612 76.0235 34.4879 75.7939 34.8427C75.4845 35.3159 75.2949 35.5968 75.225 35.6855C75.0554 35.8826 74.716 36.3015 74.207 36.9422C72.7499 38.8445 71.2129 40.5744 69.5961 42.1317C67.9793 43.6792 66.4972 44.8571 65.1499 45.6653C64.8604 45.8427 64.7157 45.9561 64.7157 46.0054C64.7157 46.0547 64.8055 46.1582 64.9852 46.3159C65.5142 46.8481 66.1828 47.5529 66.9912 48.4301C69.0971 50.7168 71.5623 52.4368 74.3867 53.5901C74.8558 53.7773 75.1452 53.9055 75.255 53.9745C75.3648 54.0336 75.4197 54.0878 75.4197 54.1371C75.4197 54.2357 75.3548 54.2849 75.225 54.2849C75.0654 54.2849 74.8208 54.2307 74.4915 54.1223C71.697 53.2352 68.8875 51.2491 66.0631 48.164C65.1249 47.1882 64.6309 46.7003 64.581 46.7003C64.561 46.7003 63.9472 49.2926 62.7396 54.4771C62.5799 55.1967 62.4701 55.6304 62.4103 55.7782C62.3504 55.9261 62.2306 56 62.051 56ZM61.4072 46.1532C61.7466 46.1532 62.1358 46.099 62.5749 45.9906C63.0241 45.8723 63.3035 45.7737 63.4133 45.6949C63.4133 45.685 63.3584 45.6505 63.2486 45.5914C62.7396 45.2661 62.2406 45.1035 61.7516 45.1035C61.4921 45.1035 61.2725 45.1429 61.0928 45.2218C60.7635 45.3499 60.5988 45.5273 60.5988 45.754C60.5988 46.0202 60.8683 46.1532 61.4072 46.1532Z" fill="#C99F08"/>
<path d="M75.1867 50.3669H75.0969C74.7176 50.3669 74.528 50.1254 74.528 49.6425C74.528 48.8934 75.067 46.5524 76.1448 42.6196C76.8734 39.8893 77.572 37.7603 78.2407 36.2325C78.3505 35.996 78.4204 35.8629 78.4503 35.8333C78.4902 35.7939 78.5451 35.7742 78.615 35.7742C78.7447 35.7742 78.8096 35.8481 78.8096 35.996C78.8096 36.1931 78.7298 36.5529 78.5701 37.0753C77.7816 39.7267 77.0231 42.5112 76.2945 45.4288C75.7955 47.4198 75.546 48.4892 75.546 48.6371V48.6519C75.556 48.6519 75.6907 48.4597 75.9502 48.0753C76.4592 47.3262 76.9932 46.6116 77.5521 45.9315C78.111 45.2513 78.5351 44.7979 78.8246 44.5712C79.114 44.3445 79.3685 44.2312 79.5881 44.2312C79.9573 44.2312 80.1719 44.4825 80.2318 44.9852V45.0887C80.2318 45.3548 80.1769 45.8625 80.0671 46.6116C79.9673 47.4198 79.9174 47.9668 79.9174 48.2527C79.9174 48.6371 80.0521 48.8293 80.3216 48.8293C80.5911 48.8293 81.145 48.5878 81.9834 48.1048C82.9415 47.5627 83.5153 47.2818 83.705 47.2621C83.7748 47.2917 83.8147 47.3311 83.8247 47.3804C83.8247 47.4592 83.6551 47.6071 83.3157 47.8239C82.3377 48.4547 81.5093 48.9377 80.8306 49.2728C80.621 49.332 80.4314 49.3616 80.2617 49.3616C79.7527 49.3616 79.4533 49.0609 79.3635 48.4597V48.297C79.3635 47.9422 79.4334 47.3311 79.5731 46.4637C79.6629 45.9315 79.7078 45.4978 79.7078 45.1626C79.7078 45.0739 79.7028 44.9901 79.6929 44.9113C79.6829 44.8226 79.643 44.7782 79.5731 44.7782C79.2138 44.8078 78.2457 46.0694 76.6688 48.5632C76.0899 49.4897 75.7007 50.0417 75.5011 50.2191C75.3913 50.3078 75.2865 50.3571 75.1867 50.3669Z" fill="#C99F08"/>
<path d="M83.8163 50.9583C83.6068 50.9583 83.4321 50.8696 83.2924 50.6922C83.1527 50.5049 83.0828 50.2832 83.0828 50.0269C83.0828 49.3468 83.5768 48.3069 84.5649 46.9073C85.2236 45.9906 85.8623 45.5323 86.4811 45.5323C87.0001 45.5323 87.3145 45.8427 87.4242 46.4637L87.4841 46.8481C87.6239 46.7101 87.7137 46.6411 87.7536 46.6411C87.8035 46.6313 87.8933 46.5327 88.0231 46.3454C88.2826 46.0399 88.5121 45.8871 88.7117 45.8871C88.8415 45.8871 88.9063 45.961 88.9063 46.1089C88.9063 46.1976 88.8564 46.3159 88.7566 46.4637C88.1977 47.3212 87.9183 48.1443 87.9183 48.9328C87.9183 49.4355 88.043 49.6868 88.2925 49.6868C88.3923 49.6868 88.5271 49.6474 88.6967 49.5685C89.2357 49.3123 89.8046 48.8589 90.4034 48.2083C91.0022 47.5479 91.3765 47.2177 91.5262 47.2177C91.5861 47.2177 91.616 47.2424 91.616 47.2917C91.616 47.3607 91.4813 47.5726 91.2118 47.9274C89.8345 49.6425 88.8015 50.5 88.1129 50.5C88.043 50.5 87.9732 50.4901 87.9033 50.4704C87.534 50.3916 87.3095 50.224 87.2296 49.9677C87.1598 49.7016 87.1149 49.5242 87.0949 49.4355C87.0849 49.3369 87.0799 49.2285 87.0799 49.1102C87.0799 48.7455 87.1448 48.2773 87.2745 47.7056C85.4581 49.8741 84.3054 50.9583 83.8163 50.9583ZM84.0409 50.1008C84.1507 50.0811 84.3852 49.9135 84.7445 49.5981C86.4013 48.0901 87.2296 47.2522 87.2296 47.0847V47.0699C87.1897 47.0403 87.1598 46.9516 87.1398 46.8038C87.0899 46.5081 87.0101 46.3405 86.9003 46.3011C86.7905 46.2518 86.7007 46.2271 86.6308 46.2271C86.2715 46.2271 85.8124 46.6214 85.2535 47.4099C84.9341 47.8831 84.6497 48.3611 84.4002 48.8441C84.1207 49.3961 83.981 49.7755 83.981 49.9825C83.981 50.0614 84.001 50.1008 84.0409 50.1008Z" fill="#C99F08"/>
<path d="M91.6825 51.2392C91.5328 51.2392 91.433 51.1752 91.3831 51.047C91.3431 50.9978 91.3232 50.9485 91.3232 50.8992C91.3232 50.6725 91.4779 49.9086 91.7873 48.6075C92.0967 47.2177 92.3212 46.3504 92.4609 46.0054C92.5408 45.8082 92.6356 45.7047 92.7454 45.6949C92.915 45.6949 92.9999 45.828 92.9999 46.0941C92.9999 46.3602 92.9101 46.8875 92.7304 47.6761V47.7056C92.7404 47.7056 92.7753 47.6613 92.8352 47.5726C93.4041 46.6066 93.7933 45.9709 94.0029 45.6653C94.8313 44.4825 95.5349 43.8763 96.1138 43.8468L96.3084 43.8616C96.488 43.8813 96.5778 43.9552 96.5778 44.0833C96.5778 44.1425 96.4381 44.586 96.1587 45.414C95.8892 46.2321 95.7545 46.7939 95.7545 47.0995C95.7545 47.3163 95.8044 47.4395 95.9042 47.4691C96.004 47.4987 96.0838 47.5134 96.1437 47.5134C96.3134 47.5036 96.5679 47.4543 96.9072 47.3656C97.2465 47.267 97.4661 47.2177 97.5659 47.2177C97.6158 47.2177 97.6457 47.2522 97.6557 47.3212C97.6557 47.3705 97.3613 47.474 96.7725 47.6317C96.2834 47.7697 95.9291 47.8387 95.7095 47.8387C95.2505 47.8387 95.0209 47.5923 95.0209 47.0995C95.0209 46.8136 95.1606 46.2419 95.4401 45.3844C95.6497 44.7142 95.7545 44.3544 95.7545 44.3051C94.5768 45.1823 93.3642 47.4001 92.1166 50.9583C92.0468 51.1456 91.902 51.2392 91.6825 51.2392Z" fill="#C99F08"/>
<path d="M99.2192 52.2298C98.4009 52.2298 97.9018 51.7616 97.7222 50.8253C97.6823 50.6183 97.6573 50.4064 97.6473 50.1895C97.6773 48.6913 98.0466 47.129 98.7552 45.5027C99.0346 44.8324 99.3739 44.4973 99.7732 44.4973C99.8231 44.4973 99.868 44.522 99.9079 44.5712C99.9777 44.6107 100.013 44.6649 100.013 44.7339C100.013 44.8423 99.9578 45.0345 99.848 45.3105C99.6983 45.6949 99.5336 46.2074 99.354 46.8481C99.0047 48.1393 98.83 49.1891 98.83 49.9973C98.83 50.5789 98.9099 50.9978 99.0695 51.254C99.1693 51.3526 99.3041 51.4019 99.4737 51.4019C99.9129 51.4019 100.567 51.0766 101.435 50.4261C101.734 50.1994 102.408 49.6474 103.456 48.7702C104.614 47.7648 105.267 47.2621 105.417 47.2621C105.487 47.2621 105.522 47.3015 105.522 47.3804C105.522 47.4789 105.267 47.75 104.758 48.1935C104.249 48.6272 103.546 49.2433 102.647 50.0417C101.689 50.8992 101.046 51.4265 100.716 51.6237C100.137 52.0278 99.6384 52.2298 99.2192 52.2298ZM100.237 43.8616C100.088 43.8616 99.9628 43.7778 99.863 43.6102C99.8231 43.5412 99.8031 43.4821 99.8031 43.4328C99.8031 43.3835 99.8181 43.3145 99.848 43.2258C99.9478 42.94 100.132 42.797 100.402 42.797C100.651 42.797 100.801 42.9252 100.851 43.1815L100.866 43.2702C100.866 43.4279 100.761 43.5757 100.552 43.7137C100.442 43.8123 100.337 43.8616 100.237 43.8616Z" fill="#C99F08"/>
<path d="M106.516 54.6546H106.322C105.633 54.6546 105.264 54.0829 105.214 52.9395C105.204 52.7917 105.199 52.6389 105.199 52.4812C105.199 51.1111 105.658 48.6568 106.576 45.1183C106.716 44.5565 106.786 44.2263 106.786 44.1277C106.786 44.108 106.776 44.0883 106.756 44.0685C106.746 44.0488 106.741 43.9996 106.741 43.9207L106.756 43.8024C106.776 43.6644 106.786 43.4969 106.786 43.2997C106.786 42.9942 106.751 42.7083 106.681 42.4422C106.332 41.703 104.88 41.3333 102.325 41.3333C101.955 41.3333 101.601 41.3432 101.262 41.3629L100.873 41.3777C100.663 41.3777 100.548 41.3629 100.528 41.3333C100.498 41.2939 100.478 41.2446 100.468 41.1855C100.468 41.1165 100.493 41.0623 100.543 41.0228C100.633 40.9539 101.626 40.8651 103.522 40.7567C104.79 40.6877 106.227 40.6237 107.834 40.5645C108.113 39.431 108.278 38.8593 108.328 38.8495C108.378 38.8297 108.423 38.815 108.463 38.8051C108.652 38.8051 108.747 38.9776 108.747 39.3226C108.747 39.5394 108.712 39.8253 108.642 40.1801C108.622 40.259 108.612 40.328 108.612 40.3871C108.612 40.4758 108.622 40.5349 108.642 40.5645C108.672 40.5941 108.757 40.6089 108.897 40.6089L109.151 40.5941C114.122 40.7025 116.607 40.9736 116.607 41.4073C116.607 41.5354 116.357 41.5995 115.858 41.5995C115.489 41.5995 114.98 41.5699 114.331 41.5108C111.866 41.2643 109.96 41.1411 108.612 41.1411H108.463L108.118 42.5457C106.711 48.0161 106.007 51.5645 106.007 53.1909C106.007 53.6935 106.067 53.9942 106.187 54.0927C106.237 54.142 106.332 54.1667 106.472 54.1667C107.02 54.0681 107.794 53.4816 108.792 52.4073C109.62 51.5202 110.559 50.2733 111.606 48.6667L112.385 47.4691C112.475 47.3311 112.555 47.2572 112.624 47.2473C112.704 47.2473 112.744 47.2917 112.744 47.3804C112.744 47.4691 112.639 47.6859 112.43 48.0309C110.304 51.5596 108.493 53.7133 106.996 54.4919C106.796 54.5905 106.636 54.6447 106.516 54.6546ZM107.19 42.8266L107.669 41.1263C107.669 41.1066 107.21 41.0968 106.292 41.0968H105.214L105.633 41.2151C106.561 41.4812 107.065 41.9346 107.145 42.5753L107.19 42.8266Z" fill="#C99F08"/>
<path d="M114.353 50.8105C114.133 50.8105 113.963 50.7858 113.844 50.7366C113.415 50.4901 113.175 50.1599 113.125 49.746C113.075 49.3221 113.05 49.0363 113.05 48.8884C113.05 48.3168 113.175 47.7056 113.424 47.0551C113.904 45.9413 114.607 45.2366 115.535 44.9409C115.635 44.9113 115.72 44.8965 115.79 44.8965C115.89 44.8965 115.999 44.9211 116.119 44.9704C116.199 45.0099 116.239 45.0641 116.239 45.1331C116.239 45.2415 116.184 45.2957 116.074 45.2957L115.955 45.2809C115.875 45.2809 115.76 45.3253 115.61 45.414C114.832 45.8477 114.303 46.5721 114.023 47.5874C113.933 47.8436 113.889 48.2133 113.889 48.6962C113.889 49.4848 114.023 49.879 114.293 49.879C114.452 49.879 114.647 49.7509 114.877 49.4946C115.515 48.7849 115.93 47.9373 116.119 46.9516C116.149 46.8136 116.164 46.72 116.164 46.6707C116.164 46.6214 116.149 46.582 116.119 46.5524C116.099 46.513 116.074 46.4637 116.044 46.4046C116.024 46.3356 115.999 46.2616 115.969 46.1828C115.95 46.0941 115.94 46.0054 115.94 45.9167C115.94 45.7984 115.964 45.6949 116.014 45.6062C116.104 45.4386 116.239 45.3548 116.419 45.3548C116.798 45.3548 116.997 45.7146 117.017 46.4341L117.032 46.9368L117.377 47.1142C117.636 47.272 117.911 47.3508 118.2 47.3508C118.539 47.3508 118.909 47.2424 119.308 47.0255C119.567 46.9073 119.712 46.8481 119.742 46.8481C119.842 46.8481 119.892 46.8925 119.892 46.9812C119.892 47.0502 119.772 47.1586 119.532 47.3065C119.073 47.5923 118.619 47.7352 118.17 47.7352C117.821 47.7352 117.477 47.6465 117.137 47.4691C117.047 47.4198 116.982 47.3952 116.943 47.3952C116.913 47.3952 116.858 47.5578 116.778 47.8831C116.578 48.5533 116.289 49.1595 115.91 49.7016C115.371 50.4409 114.852 50.8105 114.353 50.8105Z" fill="#C99F08"/>
<path d="M119.644 51.668C119.215 51.668 119 51.5448 119 51.2984C119 51.1407 119.065 50.8401 119.195 50.3965C119.953 47.7056 120.642 46.3602 121.261 46.3602C121.36 46.3602 121.41 46.4144 121.41 46.5228C121.41 46.5623 121.39 46.6411 121.351 46.7594C120.971 47.7746 120.677 48.6174 120.467 49.2876C120.477 49.2876 120.592 49.125 120.812 48.7997C121.77 47.2424 122.708 46.0152 123.626 45.1183C124.125 44.5959 124.619 44.3347 125.108 44.3347C125.547 44.3544 125.777 44.655 125.797 45.2366C125.797 45.552 125.627 46.3257 125.288 47.5578C124.869 49.1546 124.659 50.1107 124.659 50.4261C124.659 50.6823 124.779 50.8105 125.018 50.8105C125.078 50.8105 125.148 50.8006 125.228 50.7809C125.607 50.7119 126.301 50.1107 127.309 48.9771C128.317 47.8338 128.856 47.2621 128.926 47.2621C128.966 47.2621 128.985 47.2867 128.985 47.336C128.985 47.4247 128.486 48.0753 127.488 49.2876C126.49 50.5 125.682 51.2195 125.063 51.4462C124.864 51.5251 124.679 51.5645 124.509 51.5645C124.18 51.5645 123.945 51.397 123.806 51.0618C123.756 50.9435 123.731 50.776 123.731 50.5591C123.731 49.8593 124 48.6272 124.539 46.8629C124.759 46.0349 124.869 45.4534 124.869 45.1183C124.869 44.9606 124.784 44.8817 124.614 44.8817C124.464 44.8817 124.29 44.9852 124.09 45.1922C123.112 46.1779 122.179 47.4937 121.291 49.1398C120.432 50.7366 119.948 51.5596 119.838 51.6089C119.769 51.6483 119.704 51.668 119.644 51.668Z" fill="#C99F08"/>
<path d="M130.474 50.8105C130.255 50.8105 130.085 50.7858 129.965 50.7366C129.536 50.4901 129.296 50.1599 129.247 49.746C129.197 49.3221 129.172 49.0363 129.172 48.8884C129.172 48.3168 129.296 47.7056 129.546 47.0551C130.025 45.9413 130.729 45.2366 131.657 44.9409C131.757 44.9113 131.841 44.8965 131.911 44.8965C132.011 44.8965 132.121 44.9211 132.241 44.9704C132.321 45.0099 132.36 45.0641 132.36 45.1331C132.36 45.2415 132.306 45.2957 132.196 45.2957L132.076 45.2809C131.996 45.2809 131.881 45.3253 131.732 45.414C130.953 45.8477 130.424 46.5721 130.145 47.5874C130.055 47.8436 130.01 48.2133 130.01 48.6962C130.01 49.4848 130.145 49.879 130.414 49.879C130.574 49.879 130.769 49.7509 130.998 49.4946C131.637 48.7849 132.051 47.9373 132.241 46.9516C132.271 46.8136 132.286 46.72 132.286 46.6707C132.286 46.6214 132.271 46.582 132.241 46.5524C132.221 46.513 132.196 46.4637 132.166 46.4046C132.146 46.3356 132.121 46.2616 132.091 46.1828C132.071 46.0941 132.061 46.0054 132.061 45.9167C132.061 45.7984 132.086 45.6949 132.136 45.6062C132.226 45.4386 132.36 45.3548 132.54 45.3548C132.919 45.3548 133.119 45.7146 133.139 46.4341L133.154 46.9368L133.498 47.1142C133.758 47.272 134.032 47.3508 134.322 47.3508C134.661 47.3508 135.03 47.2424 135.429 47.0255C135.689 46.9073 135.834 46.8481 135.864 46.8481C135.963 46.8481 136.013 46.8925 136.013 46.9812C136.013 47.0502 135.893 47.1586 135.654 47.3065C135.195 47.5923 134.741 47.7352 134.292 47.7352C133.942 47.7352 133.598 47.6465 133.259 47.4691C133.169 47.4198 133.104 47.3952 133.064 47.3952C133.034 47.3952 132.979 47.5578 132.899 47.8831C132.7 48.5533 132.41 49.1595 132.031 49.7016C131.492 50.4409 130.973 50.8105 130.474 50.8105Z" fill="#C99F08"/>
<path d="M136.379 52.1559C136.239 52.1559 136.135 52.1263 136.065 52.0672C135.925 51.9686 135.85 51.8454 135.84 51.6976C135.82 51.5399 135.81 51.4216 135.81 51.3427C135.81 50.9386 135.995 49.7115 136.364 47.6613C136.604 46.2222 136.723 45.4583 136.723 45.3696C136.723 45.2711 136.743 45.1922 136.783 45.1331C136.833 45.0739 136.888 45.0444 136.948 45.0444C137.148 45.0444 137.247 45.2711 137.247 45.7245C137.247 46.2074 137.133 47.3853 136.903 49.2581C136.793 50.1649 136.738 50.6479 136.738 50.707V50.7366C136.778 50.7366 137.262 50.1649 138.191 49.0215C139.328 47.6219 139.897 46.8826 139.897 46.8038C139.857 46.7151 139.837 46.6165 139.837 46.5081C139.837 46.3405 139.877 46.1483 139.957 45.9315C140.147 45.3893 140.401 44.9409 140.721 44.586C141.05 44.2312 141.394 44.0538 141.754 44.0538C141.833 44.0538 141.918 44.0883 142.008 44.1573C142.068 44.2361 142.103 44.3051 142.113 44.3642L142.098 44.5712C142.098 44.9064 141.808 45.4879 141.23 46.3159C140.94 46.7496 140.795 46.9812 140.795 47.0108C140.795 47.1586 141.504 47.2522 142.921 47.2917C143.261 47.3114 143.545 47.3262 143.775 47.336C144.014 47.3459 144.144 47.3607 144.164 47.3804C144.194 47.3902 144.209 47.4198 144.209 47.4691C144.209 47.5184 144.199 47.5627 144.179 47.6021C144.159 47.6416 143.76 47.6613 142.981 47.6613C141.953 47.6613 141.14 47.5775 140.541 47.4099C140.491 47.4099 140.237 47.7155 139.777 48.3266C137.901 50.7809 136.848 52.0376 136.619 52.0968C136.549 52.1362 136.469 52.1559 136.379 52.1559ZM140.271 46.4194C141.13 45.3253 141.559 44.7043 141.559 44.5565C141.559 44.5269 141.549 44.5121 141.529 44.5121C141.449 44.5121 141.289 44.6402 141.05 44.8965C140.9 45.0641 140.746 45.3006 140.586 45.6062C140.426 45.9019 140.321 46.1729 140.271 46.4194Z" fill="#C99F08"/>
<path d="M144.2 50.9583C143.991 50.9583 143.816 50.8696 143.676 50.6922C143.537 50.5049 143.467 50.2832 143.467 50.0269C143.467 49.3468 143.961 48.3069 144.949 46.9073C145.608 45.9906 146.246 45.5323 146.865 45.5323C147.384 45.5323 147.698 45.8427 147.808 46.4637L147.868 46.8481C148.008 46.7101 148.098 46.6411 148.138 46.6411C148.188 46.6313 148.277 46.5327 148.407 46.3454C148.667 46.0399 148.896 45.8871 149.096 45.8871C149.225 45.8871 149.29 45.961 149.29 46.1089C149.29 46.1976 149.24 46.3159 149.141 46.4637C148.582 47.3212 148.302 48.1443 148.302 48.9328C148.302 49.4355 148.427 49.6868 148.677 49.6868C148.776 49.6868 148.911 49.6474 149.081 49.5685C149.62 49.3123 150.189 48.8589 150.787 48.2083C151.386 47.5479 151.76 47.2177 151.91 47.2177C151.97 47.2177 152 47.2424 152 47.2917C152 47.3607 151.865 47.5726 151.596 47.9274C150.219 49.6425 149.186 50.5 148.497 50.5C148.427 50.5 148.357 50.4901 148.287 50.4704C147.918 50.3916 147.693 50.224 147.614 49.9677C147.544 49.7016 147.499 49.5242 147.479 49.4355C147.469 49.3369 147.464 49.2285 147.464 49.1102C147.464 48.7455 147.529 48.2773 147.659 47.7056C145.842 49.8741 144.689 50.9583 144.2 50.9583ZM144.425 50.1008C144.535 50.0811 144.769 49.9135 145.129 49.5981C146.785 48.0901 147.614 47.2522 147.614 47.0847V47.0699C147.574 47.0403 147.544 46.9516 147.524 46.8038C147.474 46.5081 147.394 46.3405 147.284 46.3011C147.174 46.2518 147.085 46.2271 147.015 46.2271C146.656 46.2271 146.196 46.6214 145.638 47.4099C145.318 47.8831 145.034 48.3611 144.784 48.8441C144.505 49.3961 144.365 49.7755 144.365 49.9825C144.365 50.0614 144.385 50.1008 144.425 50.1008Z" fill="#C99F08"/>
</svg>
