<svg width="48" height="48" viewBox="0 0 48 48" fill="none" xmlns="http://www.w3.org/2000/svg">
<rect width="48" height="48" rx="24" fill="#07BAB7"/>
<path fill-rule="evenodd" clip-rule="evenodd" d="M16.6402 17.7468C16.385 17.7948 16.0252 17.9885 15.8216 18.1877C15.2308 18.7654 15.2075 19.6971 15.7696 20.2647C15.9221 20.4186 22.9859 25.0069 23.3166 25.1668C23.7462 25.3746 24.23 25.3791 24.6653 25.1794C24.9793 25.0353 32.0282 20.4617 32.2061 20.2865C32.7918 19.7101 32.7791 18.7758 32.1776 18.1877C31.9648 17.9795 31.611 17.7945 31.3291 17.7438C31.1005 17.7026 16.8593 17.7056 16.6402 17.7468ZM15.3574 25.0586C15.3574 27.7108 15.3688 28.9278 15.3946 29.0484C15.4856 29.4731 15.7993 29.8792 16.1939 30.0833C16.6102 30.2985 16.1006 30.2852 23.9866 30.2858C28.6128 30.2861 31.2115 30.2747 31.3291 30.2535C31.609 30.2032 31.9791 30.0111 32.1826 29.8105C32.3801 29.6159 32.548 29.3127 32.6046 29.0484C32.6474 28.8486 32.659 21.235 32.6165 21.2533C32.6025 21.2593 30.97 22.3137 28.9886 23.5965C27.0072 24.8793 25.2774 25.9819 25.1447 26.0467C24.7715 26.229 24.4551 26.2986 23.9996 26.2986C23.5441 26.2986 23.2277 26.229 22.8545 26.0467C22.7218 25.9819 20.992 24.8793 19.0106 23.5965C17.0292 22.3137 15.3966 21.2593 15.3827 21.2533C15.3688 21.2473 15.3574 22.9597 15.3574 25.0586Z" fill="#FDF6E0"/>
</svg>
