<svg width="33" height="32" viewBox="0 0 33 32" fill="none" xmlns="http://www.w3.org/2000/svg">
<path d="M0.00680363 22.2053C0.00680363 26.4124 3.41715 29.8228 7.62422 29.8228C11.8314 29.8228 15.2417 26.4124 15.2417 22.2053C15.2417 17.9982 11.8314 14.5879 7.62422 14.5879C6.7596 14.5879 5.93196 14.7386 5.15716 15.0042C6.87141 5.17257 14.5382 -1.16773 7.4311 4.05046C-0.449598 9.83686 -0.00163658 21.9725 0.00718155 22.1949C0.00718155 22.1984 0.00680363 22.2015 0.00680363 22.2053Z" fill="#FFDC5E"/>
<path d="M16.7666 22.2053C16.7666 26.4124 20.1769 29.8228 24.3841 29.8228C28.5912 29.8228 32.0016 26.4124 32.0016 22.2053C32.0016 17.9982 28.5911 14.5879 24.384 14.5879C23.5193 14.5879 22.6917 14.7386 21.9169 15.0042C23.6312 5.17257 31.298 -1.16773 24.1909 4.05046C16.3102 9.83686 16.7581 21.9725 16.767 22.1949C16.767 22.1984 16.7666 22.2015 16.7666 22.2053Z" fill="#FFDC5E"/>
</svg>
