<svg width="36" height="36" viewBox="0 0 36 36" fill="none" xmlns="http://www.w3.org/2000/svg">
<path d="M0.00765409 24.9807C0.00765409 29.7137 3.8443 33.5504 8.57725 33.5504C13.3103 33.5504 17.1469 29.7137 17.1469 24.9807C17.1469 20.2477 13.3103 16.4111 8.57725 16.4111C7.60456 16.4111 6.67345 16.5807 5.80181 16.8795C7.73033 5.8189 16.3555 -1.31394 8.35999 4.55653C-0.505798 11.0662 -0.00184115 24.7188 0.00807925 24.969C0.00807925 24.9729 0.00765409 24.9764 0.00765409 24.9807Z" fill="#07BAB7"/>
<path d="M18.8592 24.9807C18.8592 29.7137 22.6959 33.5504 27.4289 33.5504C32.1619 33.5504 35.9986 29.7137 35.9986 24.9807C35.9986 20.2477 32.1619 16.4111 27.4288 16.4111C26.4561 16.4111 25.525 16.5807 24.6534 16.8795C26.5819 5.8189 35.2071 -1.31394 27.2116 4.55653C18.3458 11.0662 18.8497 24.7188 18.8597 24.969C18.8597 24.9729 18.8592 24.9764 18.8592 24.9807Z" fill="#07BAB7"/>
</svg>
