<svg width="48" height="48" viewBox="0 0 48 48" fill="none" xmlns="http://www.w3.org/2000/svg">
<rect width="48" height="48" rx="24" fill="#FFDC5E"/>
<path d="M30.7162 26.5022C29.7366 26.5022 28.7748 26.349 27.8633 26.0478C27.4167 25.8954 26.8676 26.0352 26.595 26.3151L24.796 27.6732C22.7096 26.5595 21.4245 25.2748 20.326 23.204L21.6441 21.4519C21.9865 21.1099 22.1094 20.6103 21.9622 20.1415C21.6597 19.2253 21.506 18.2639 21.506 17.2839C21.5061 16.576 20.9301 16 20.2222 16H17.2839C16.576 16 16 16.576 16 17.2839C16 25.3985 22.6016 32 30.7162 32C31.4241 32 32 31.424 32 30.7161V27.786C32 27.0781 31.424 26.5022 30.7162 26.5022Z" fill="#161614"/>
</svg>
