<svg width="48" height="48" viewBox="0 0 48 48" fill="none" xmlns="http://www.w3.org/2000/svg">
<rect width="48" height="48" rx="24" fill="#07BAB7"/>
<path d="M16.6062 22.9276C21.208 20.7503 24.2765 19.3149 25.8119 18.6214C30.1956 16.6412 31.1065 16.2972 31.7002 16.2858C31.8308 16.2834 32.1228 16.3185 32.3119 16.4852C32.4716 16.6259 32.5155 16.816 32.5366 16.9494C32.5576 17.0829 32.5838 17.3868 32.563 17.6243C32.3254 20.335 31.2975 26.913 30.7746 29.949C30.5533 31.2337 30.1176 31.6644 29.6958 31.7066C28.7791 31.7982 28.083 31.0487 27.1952 30.4166C25.8059 29.4276 25.021 28.8119 23.6724 27.8468C22.1139 26.7315 23.1242 26.1185 24.0124 25.1166C24.2448 24.8544 28.2838 20.8648 28.3619 20.5029C28.3717 20.4576 28.3808 20.2889 28.2885 20.1998C28.1962 20.1107 28.06 20.1412 27.9617 20.1654C27.8223 20.1997 25.6029 21.7929 21.3033 24.9448C20.6733 25.4146 20.1027 25.6435 19.5915 25.6315C19.0279 25.6182 17.9437 25.2854 17.1377 25.0009C16.1492 24.6519 15.3635 24.4674 15.4319 23.8747C15.4675 23.566 15.859 23.2503 16.6062 22.9276Z" fill="#FDF6E0"/>
</svg>
