<svg width="40" height="40" viewBox="0 0 40 40" fill="none" xmlns="http://www.w3.org/2000/svg">
<circle cx="20" cy="20" r="20" fill="#FFDC5E"/>
<path d="M11.2374 19.4575C16.0692 17.3406 19.2912 15.9451 20.9033 15.2708C25.5063 13.3457 26.4627 13.0113 27.0861 13.0001C27.2232 12.9978 27.5298 13.032 27.7284 13.194C27.8961 13.3308 27.9422 13.5156 27.9643 13.6453C27.9864 13.7751 28.0139 14.0706 27.992 14.3015C27.7426 16.9368 26.6633 23.3322 26.1142 26.2839C25.8818 27.5328 25.4244 27.9516 24.9815 27.9926C24.0189 28.0816 23.288 27.3529 22.3558 26.7385C20.897 25.7769 20.0729 25.1783 18.6569 24.24C17.0205 23.1557 18.0813 22.5597 19.0139 21.5857C19.258 21.3308 23.4988 17.452 23.5809 17.1001C23.5912 17.0561 23.6007 16.892 23.5038 16.8054C23.4069 16.7188 23.2639 16.7484 23.1606 16.772C23.0143 16.8054 20.6839 18.3542 16.1694 21.4186C15.5079 21.8753 14.9087 22.0979 14.3719 22.0862C13.7801 22.0734 12.6417 21.7497 11.7955 21.4731C10.7575 21.1338 9.93252 20.9545 10.0044 20.3783C10.0418 20.0781 10.4528 19.7712 11.2374 19.4575Z" fill="#161614"/>
</svg>
