<svg width="48" height="48" viewBox="0 0 48 48" fill="none" xmlns="http://www.w3.org/2000/svg">
<rect width="48" height="48" rx="24" fill="#FFDC5E"/>
<path d="M24.0025 14H23.9975C18.4838 14 14 18.485 14 24C14 26.1875 14.705 28.215 15.9037 29.8612L14.6575 33.5763L18.5013 32.3475C20.0825 33.395 21.9688 34 24.0025 34C29.5162 34 34 29.5138 34 24C34 18.4863 29.5162 14 24.0025 14Z" fill="#161614"/>
<path d="M29.8207 28.1217C29.5794 28.803 28.622 29.368 27.8582 29.533C27.3357 29.6442 26.6532 29.733 24.3557 28.7805C21.417 27.563 19.5245 24.5767 19.377 24.383C19.2357 24.1892 18.1895 22.8017 18.1895 21.3667C18.1895 19.9317 18.9182 19.233 19.212 18.933C19.4532 18.6867 19.852 18.5742 20.2345 18.5742C20.3582 18.5742 20.4695 18.5805 20.5695 18.5855C20.8632 18.598 21.0107 18.6155 21.2045 19.0792C21.4457 19.6605 22.0332 21.0955 22.1032 21.243C22.1745 21.3905 22.2457 21.5905 22.1457 21.7842C22.052 21.9842 21.9695 22.073 21.822 22.243C21.6745 22.413 21.5345 22.543 21.387 22.7255C21.252 22.8842 21.0995 23.0542 21.2695 23.348C21.4395 23.6355 22.027 24.5942 22.892 25.3642C24.0082 26.358 24.9132 26.6755 25.237 26.8105C25.4782 26.9105 25.7657 26.8867 25.942 26.6992C26.1657 26.458 26.442 26.058 26.7232 25.6642C26.9232 25.3817 27.1757 25.3467 27.4407 25.4467C27.7107 25.5405 29.1395 26.2467 29.4332 26.393C29.7269 26.5405 29.9207 26.6105 29.9919 26.7342C30.0619 26.858 30.0619 27.4392 29.8207 28.1217Z" fill="#FFDC5E"/>
</svg>
