<svg width="40" height="40" viewBox="0 0 40 40" fill="none" xmlns="http://www.w3.org/2000/svg">
<circle cx="20" cy="20" r="20" fill="#FFDC5E"/>
<path d="M20.0025 10H19.9975C14.4838 10 10 14.485 10 20C10 22.1875 10.705 24.215 11.9037 25.8612L10.6575 29.5763L14.5013 28.3475C16.0825 29.395 17.9688 30 20.0025 30C25.5162 30 30 25.5138 30 20C30 14.4863 25.5162 10 20.0025 10Z" fill="#161614"/>
<path d="M25.8207 24.1217C25.5794 24.803 24.622 25.368 23.8582 25.533C23.3357 25.6442 22.6532 25.733 20.3557 24.7805C17.417 23.563 15.5245 20.5767 15.377 20.383C15.2357 20.1892 14.1895 18.8017 14.1895 17.3667C14.1895 15.9317 14.9182 15.233 15.212 14.933C15.4532 14.6867 15.852 14.5742 16.2345 14.5742C16.3582 14.5742 16.4695 14.5805 16.5695 14.5855C16.8632 14.598 17.0107 14.6155 17.2045 15.0792C17.4457 15.6605 18.0332 17.0955 18.1032 17.243C18.1745 17.3905 18.2457 17.5905 18.1457 17.7842C18.052 17.9842 17.9695 18.073 17.822 18.243C17.6745 18.413 17.5345 18.543 17.387 18.7255C17.252 18.8842 17.0995 19.0542 17.2695 19.348C17.4395 19.6355 18.027 20.5942 18.892 21.3642C20.0082 22.358 20.9132 22.6755 21.237 22.8105C21.4782 22.9105 21.7657 22.8867 21.942 22.6992C22.1657 22.458 22.442 22.058 22.7232 21.6642C22.9232 21.3817 23.1757 21.3467 23.4407 21.4467C23.7107 21.5405 25.1395 22.2467 25.4332 22.393C25.7269 22.5405 25.9207 22.6105 25.9919 22.7342C26.0619 22.858 26.0619 23.4392 25.8207 24.1217Z" fill="#FFDC5E"/>
</svg>
